PathFileType	4	(X/Y/Z)	output.trc
DataRate	CameraRate	NumFrames	NumMarkers	Units	OrigDataRate	OrigDataStartFrame	OrigNumFrames
1.0	1.0	112	3	mm	1.0	422	1125
Frame#	Time	Joint1X	Joint1Y	Joint1Z	Joint2X	Joint2Y	Joint2Z	Joint3X	Joint3Y	Joint3Z
										
422	421.00000	-0.12855	1.53549	1.91534	-0.36414	1.50935	1.76590	-0.30549	1.68606	1.62482
423	422.00000	-0.12943	1.53659	1.91703	-0.36762	1.51774	1.77015	-0.30518	1.69801	1.63499
424	423.00000	-0.13021	1.53783	1.91913	-0.37096	1.52596	1.77509	-0.30503	1.70978	1.64604
425	424.00000	-0.13098	1.53919	1.92151	-0.37398	1.53431	1.78017	-0.30505	1.72161	1.65726
426	425.00000	-0.13184	1.54065	1.92396	-0.37655	1.54312	1.78492	-0.30512	1.73372	1.66812
427	426.00000	-0.13285	1.54216	1.92626	-0.37861	1.55263	1.78910	-0.30503	1.74621	1.67831
428	427.00000	-0.13404	1.54365	1.92821	-0.38022	1.56291	1.79275	-0.30456	1.75906	1.68783
429	428.00000	-0.13538	1.54507	1.92974	-0.38146	1.57382	1.79611	-0.30356	1.77202	1.69689
430	429.00000	-0.13679	1.54635	1.93087	-0.38248	1.58498	1.79950	-0.30202	1.78472	1.70580
431	430.00000	-0.13818	1.54747	1.93175	-0.38337	1.59590	1.80321	-0.30006	1.79670	1.71484
432	431.00000	-0.13946	1.54845	1.93258	-0.38420	1.60605	1.80738	-0.29786	1.80756	1.72417
433	432.00000	-0.14057	1.54934	1.93354	-0.38498	1.61504	1.81194	-0.29561	1.81701	1.73374
434	433.00000	-0.14149	1.55021	1.93477	-0.38568	1.62269	1.81669	-0.29341	1.82502	1.74336
435	434.00000	-0.14225	1.55112	1.93628	-0.38625	1.62911	1.82134	-0.29130	1.83175	1.75277
436	435.00000	-0.14293	1.55207	1.93802	-0.38662	1.63463	1.82564	-0.28924	1.83758	1.76175
437	436.00000	-0.14357	1.55304	1.93987	-0.38674	1.63970	1.82948	-0.28713	1.84297	1.77026
438	437.00000	-0.14422	1.55396	1.94172	-0.38653	1.64480	1.83293	-0.28489	1.84840	1.77838
439	438.00000	-0.14486	1.55474	1.94348	-0.38597	1.65027	1.83617	-0.28248	1.85423	1.78635
440	439.00000	-0.14547	1.55536	1.94512	-0.38504	1.65629	1.83944	-0.27994	1.86066	1.79443
441	440.00000	-0.14595	1.55581	1.94666	-0.38377	1.66280	1.84294	-0.27733	1.86762	1.80283
442	441.00000	-0.14625	1.55615	1.94813	-0.38225	1.66954	1.84679	-0.27474	1.87485	1.81161
443	442.00000	-0.14629	1.55647	1.94961	-0.38056	1.67617	1.85099	-0.27224	1.88197	1.82074
444	443.00000	-0.14605	1.55688	1.95115	-0.37882	1.68233	1.85545	-0.26987	1.88858	1.83007
445	444.00000	-0.14552	1.55739	1.95280	-0.37708	1.68778	1.86006	-0.26763	1.89440	1.83942
446	445.00000	-0.14475	1.55799	1.95459	-0.37534	1.69245	1.86472	-0.26549	1.89933	1.84861
447	446.00000	-0.14378	1.55858	1.95652	-0.37359	1.69637	1.86936	-0.26338	1.90344	1.85745
448	447.00000	-0.14269	1.55902	1.95856	-0.37176	1.69969	1.87392	-0.26126	1.90688	1.86573
449	448.00000	-0.14156	1.55922	1.96064	-0.36983	1.70255	1.87836	-0.25910	1.90980	1.87324
450	449.00000	-0.14042	1.55914	1.96267	-0.36783	1.70503	1.88257	-0.25685	1.91227	1.87980
451	450.00000	-0.13930	1.55884	1.96456	-0.36584	1.70716	1.88645	-0.25449	1.91428	1.88528
452	451.00000	-0.13820	1.55845	1.96624	-0.36393	1.70894	1.88990	-0.25200	1.91578	1.88967
453	452.00000	-0.13708	1.55813	1.96770	-0.36217	1.71036	1.89283	-0.24936	1.91671	1.89309
454	453.00000	-0.13590	1.55803	1.96897	-0.36061	1.71143	1.89522	-0.24657	1.91710	1.89572
455	454.00000	-0.13461	1.55826	1.97010	-0.35920	1.71224	1.89711	-0.24364	1.91704	1.89781
456	455.00000	-0.13319	1.55880	1.97117	-0.35792	1.71286	1.89859	-0.24061	1.91668	1.89954
457	456.00000	-0.13168	1.55958	1.97220	-0.35671	1.71339	1.89972	-0.23757	1.91620	1.90100
458	457.00000	-0.13018	1.56047	1.97320	-0.35556	1.71388	1.90058	-0.23467	1.91573	1.90219
459	458.00000	-0.12879	1.56132	1.97413	-0.35450	1.71435	1.90117	-0.23206	1.91538	1.90307
460	459.00000	-0.12764	1.56200	1.97492	-0.35358	1.71478	1.90148	-0.22986	1.91518	1.90357
461	460.00000	-0.12680	1.56246	1.97551	-0.35283	1.71513	1.90145	-0.22815	1.91511	1.90368
462	461.00000	-0.12626	1.56270	1.97587	-0.35227	1.71531	1.90106	-0.22692	1.91507	1.90338
463	462.00000	-0.12588	1.56282	1.97599	-0.35186	1.71523	1.90027	-0.22611	1.91493	1.90265
464	463.00000	-0.12546	1.56291	1.97593	-0.35150	1.71474	1.89911	-0.22564	1.91454	1.90136
465	464.00000	-0.12475	1.56311	1.97576	-0.35106	1.71372	1.89762	-0.22552	1.91377	1.89931
466	465.00000	-0.12354	1.56350	1.97557	-0.35044	1.71205	1.89588	-0.22583	1.91255	1.89625
467	466.00000	-0.12170	1.56410	1.97547	-0.34955	1.70969	1.89392	-0.22672	1.91091	1.89191
468	467.00000	-0.11931	1.56488	1.97555	-0.34837	1.70668	1.89180	-0.22838	1.90897	1.88611
469	468.00000	-0.11655	1.56577	1.97587	-0.34695	1.70314	1.88950	-0.23095	1.90689	1.87880
470	469.00000	-0.11372	1.56668	1.97648	-0.34539	1.69924	1.88696	-0.23439	1.90481	1.87007
471	470.00000	-0.11113	1.56752	1.97738	-0.34379	1.69514	1.88409	-0.23850	1.90275	1.86011
472	471.00000	-0.10899	1.56826	1.97855	-0.34227	1.69092	1.88084	-0.24293	1.90053	1.84917
473	472.00000	-0.10736	1.56885	1.97991	-0.34088	1.68658	1.87721	-0.24725	1.89784	1.83748
474	473.00000	-0.10618	1.56930	1.98140	-0.33964	1.68206	1.87332	-0.25105	1.89423	1.82528
475	474.00000	-0.10526	1.56957	1.98292	-0.33853	1.67725	1.86936	-0.25407	1.88926	1.81276
476	475.00000	-0.10439	1.56964	1.98437	-0.33750	1.67205	1.86562	-0.25626	1.88265	1.80012
477	476.00000	-0.10339	1.56946	1.98568	-0.33651	1.66643	1.86232	-0.25769	1.87435	1.78758
478	477.00000	-0.10221	1.56901	1.98679	-0.33553	1.66044	1.85961	-0.25855	1.86461	1.77538
479	478.00000	-0.10086	1.56832	1.98769	-0.33454	1.65422	1.85746	-0.25901	1.85402	1.76382
480	479.00000	-0.09949	1.56748	1.98836	-0.33359	1.64799	1.85568	-0.25915	1.84334	1.75316
481	480.00000	-0.09827	1.56661	1.98880	-0.33269	1.64199	1.85399	-0.25896	1.83342	1.74358
482	481.00000	-0.09735	1.56586	1.98901	-0.33184	1.63643	1.85204	-0.25837	1.82486	1.73511
483	482.00000	-0.09678	1.56534	1.98900	-0.33102	1.63140	1.84953	-0.25735	1.81783	1.72753
484	483.00000	-0.09653	1.56512	1.98880	-0.33010	1.62683	1.84628	-0.25601	1.81185	1.72036
485	484.00000	-0.09646	1.56517	1.98851	-0.32894	1.62242	1.84231	-0.25465	1.80577	1.71290
486	485.00000	-0.09636	1.56539	1.98824	-0.32737	1.61770	1.83782	-0.25375	1.79798	1.70433
487	486.00000	-0.09604	1.56561	1.98814	-0.32528	1.61208	1.83314	-0.25380	1.78675	1.69394
488	487.00000	-0.09536	1.56565	1.98835	-0.32263	1.60496	1.82869	-0.25516	1.77080	1.68133
489	488.00000	-0.09427	1.56538	1.98892	-0.31952	1.59595	1.82484	-0.25788	1.74975	1.66668
490	489.00000	-0.09287	1.56471	1.98983	-0.31613	1.58496	1.82189	-0.26171	1.72438	1.65081
491	490.00000	-0.09132	1.56368	1.99097	-0.31275	1.57225	1.81999	-0.26612	1.69642	1.63502
492	491.00000	-0.08981	1.56242	1.99215	-0.30964	1.55837	1.81916	-0.27051	1.66794	1.62082
493	492.00000	-0.08851	1.56110	1.99316	-0.30701	1.54401	1.81929	-0.27441	1.64064	1.60948
494	493.00000	-0.08752	1.55992	1.99383	-0.30492	1.52976	1.82026	-0.27760	1.61515	1.60171
495	494.00000	-0.08682	1.55905	1.99404	-0.30329	1.51598	1.82188	-0.28005	1.59085	1.59757
496	495.00000	-0.08635	1.55855	1.99375	-0.30187	1.50269	1.82399	-0.28178	1.56622	1.59653
497	496.00000	-0.08598	1.55836	1.99296	-0.30034	1.48967	1.82649	-0.28269	1.53954	1.59780
498	497.00000	-0.08558	1.55838	1.99174	-0.29835	1.47658	1.82933	-0.28246	1.50974	1.60056
499	498.00000	-0.08503	1.55844	1.99021	-0.29562	1.46311	1.83261	-0.28058	1.47691	1.60429
500	499.00000	-0.08425	1.55843	1.98850	-0.29197	1.44916	1.83649	-0.27660	1.44242	1.60874
501	500.00000	-0.08321	1.55827	1.98677	-0.28735	1.43483	1.84119	-0.27042	1.40850	1.61396
502	501.00000	-0.08189	1.55795	1.98518	-0.28181	1.42041	1.84683	-0.26248	1.37746	1.62004
503	502.00000	-0.08035	1.55746	1.98388	-0.27547	1.40630	1.85336	-0.25381	1.35094	1.62704
504	503.00000	-0.07866	1.55681	1.98296	-0.26849	1.39291	1.86040	-0.24583	1.32939	1.63480
505	504.00000	-0.07693	1.55594	1.98249	-0.26096	1.38056	1.86734	-0.23989	1.31199	1.64299
506	505.00000	-0.07525	1.55480	1.98245	-0.25299	1.36941	1.87344	-0.23692	1.29700	1.65121
507	506.00000	-0.07373	1.55335	1.98279	-0.24468	1.35947	1.87810	-0.23706	1.28241	1.65916
508	507.00000	-0.07244	1.55162	1.98341	-0.23626	1.35064	1.88113	-0.23972	1.26662	1.66681
509	508.00000	-0.07142	1.54974	1.98414	-0.22807	1.34278	1.88285	-0.24378	1.24893	1.67451
510	509.00000	-0.07068	1.54792	1.98481	-0.22053	1.33574	1.88410	-0.24794	1.22956	1.68293
511	510.00000	-0.07016	1.54635	1.98525	-0.21408	1.32936	1.88596	-0.25115	1.20947	1.69292
512	511.00000	-0.06983	1.54518	1.98533	-0.20893	1.32349	1.88946	-0.25280	1.18981	1.70521
513	512.00000	-0.06957	1.54438	1.98495	-0.20503	1.31796	1.89523	-0.25272	1.17152	1.72021
514	513.00000	-0.06932	1.54377	1.98409	-0.20196	1.31255	1.90333	-0.25109	1.15502	1.73780
515	514.00000	-0.06898	1.54307	1.98276	-0.19911	1.30704	1.91333	-0.24818	1.14021	1.75739
516	515.00000	-0.06848	1.54199	1.98100	-0.19577	1.30127	1.92448	-0.24418	1.12664	1.77810
517	516.00000	-0.06781	1.54031	1.97888	-0.19143	1.29514	1.93592	-0.23921	1.11378	1.79906
518	517.00000	-0.06698	1.53803	1.97645	-0.18589	1.28875	1.94698	-0.23336	1.10122	1.81962
519	518.00000	-0.06604	1.53530	1.97382	-0.17933	1.28233	1.95722	-0.22685	1.08889	1.83957
520	519.00000	-0.06507	1.53243	1.97110	-0.17228	1.27629	1.96646	-0.22009	1.07703	1.85907
521	520.00000	-0.06419	1.52976	1.96841	-0.16540	1.27105	1.97477	-0.21364	1.06611	1.87855
522	521.00000	-0.06346	1.52757	1.96586	-0.15931	1.26699	1.98233	-0.20807	1.05667	1.89848
523	522.00000	-0.06295	1.52600	1.96351	-0.15436	1.26431	1.98941	-0.20369	1.04914	1.91914
524	523.00000	-0.06268	1.52504	1.96140	-0.15061	1.26298	1.99627	-0.20044	1.04370	1.94049
525	524.00000	-0.06263	1.52453	1.95950	-0.14778	1.26276	2.00313	-0.19784	1.04022	1.96212
526	525.00000	-0.06278	1.52423	1.95780	-0.14545	1.26329	2.01011	-0.19516	1.03831	1.98338
527	526.00000	-0.06308	1.52392	1.95628	-0.14319	1.26414	2.01722	-0.19168	1.03745	2.00350
528	527.00000	-0.06348	1.52344	1.95495	-0.14071	1.26495	2.02434	-0.18699	1.03711	2.02182
529	528.00000	-0.06395	1.52272	1.95382	-0.13796	1.26549	2.03125	-0.18113	1.03689	2.03788
530	529.00000	-0.06446	1.52183	1.95292	-0.13507	1.26574	2.03768	-0.17461	1.03665	2.05152
531	530.00000	-0.06499	1.52093	1.95224	-0.13233	1.26583	2.04336	-0.16825	1.03644	2.06284
532	531.00000	-0.06551	1.52024	1.95176	-0.13001	1.26598	2.04809	-0.16289	1.03651	2.07211
533	532.00000	-0.06602	1.51994	1.95139	-0.12831	1.26646	2.05180	-0.15914	1.03711	2.07975
